<?xml version="1.0" encoding="utf-8"?>
<!-- Generator: Adobe Illustrator 15.0.2, SVG Export Plug-In . SVG Version: 6.00 Build 0)  -->
<!DOCTYPE svg PUBLIC "-//W3C//DTD SVG 1.1//EN" "http://www.w3.org/Graphics/SVG/1.1/DTD/svg11.dtd">
<svg version="1.1" id="Layer_1" xmlns="http://www.w3.org/2000/svg" xmlns:xlink="http://www.w3.org/1999/xlink" x="0px" y="0px"
	 preserveAspectRatio="none" viewBox="0 -130.073 260.745 186.928" enable-background="new 0 -130.073 260.745 186.928"
	 xml:space="preserve">
<g id="_x30_5-Careers">
	<path fill="#A87C4F" d="M50.358,44.49H4.086C1.829,44.49,0,42.661,0,40.404C0,39.82,0.649-18.04,56.801-18.04
		c7.557,0,14.486,0.98,20.599,2.908c2.151,0.68,3.346,2.978,2.665,5.13c-0.682,2.148-2.991,3.33-5.127,2.666
		C69.623-9.016,63.52-9.868,56.801-9.868C16.483-9.868,9.59,24.26,8.413,36.318h41.945c2.257,0,4.087,1.829,4.087,4.086
		S52.615,44.49,50.358,44.49z"/>
	<path fill="#A87C4F" d="M54.885-23.739c-17.692,0-32.086-14.396-32.086-32.089c0-17.692,14.394-32.086,32.086-32.086
		c17.693,0,32.089,14.394,32.089,32.086C86.974-38.135,72.579-23.739,54.885-23.739z M54.885-79.741
		c-13.187,0-23.914,10.728-23.914,23.914c0,13.188,10.728,23.917,23.914,23.917c13.188,0,23.916-10.729,23.916-23.917
		C78.802-69.014,68.073-79.741,54.885-79.741z"/>
	<path fill="#A87C4F" d="M256.658,44.49h-46.27c-2.257,0-4.086-1.829-4.086-4.086s1.829-4.086,4.086-4.086h41.941
		c-1.175-12.058-8.07-46.187-48.39-46.187c-6.713,0-12.816,0.853-18.139,2.532c-2.161,0.667-4.446-0.521-5.127-2.669
		c-0.677-2.151,0.518-4.447,2.669-5.126c6.117-1.928,13.047-2.908,20.597-2.908c56.156,0,56.805,57.86,56.805,58.444
		c0,1.082-0.432,2.123-1.197,2.89C258.781,44.059,257.74,44.49,256.658,44.49z"/>
	<path fill="#A87C4F" d="M205.859-23.739c-17.695,0-32.089-14.396-32.089-32.089c0-17.692,14.394-32.086,32.089-32.086
		c17.691,0,32.086,14.394,32.086,32.086C237.945-38.135,223.551-23.739,205.859-23.739z M205.859-79.741
		c-13.188,0-23.917,10.728-23.917,23.914c0,13.188,10.729,23.917,23.917,23.917s23.914-10.729,23.914-23.917
		C229.773-69.014,219.047-79.741,205.859-79.741z"/>
	<g>
		<g>
			<path fill="#A87C4F" d="M150.83-22.197l-16.775,34.084l-0.103,0.214c-0.581,1.171-1.998,1.657-3.173,1.079
				c-0.562-0.278-0.967-0.75-1.172-1.293v-0.006L111.184-25.52l4.865,2.646l-0.013,0.003c-8.6,1.449-16.906,4.249-24.258,8.664
				C84.414-9.826,78.061-3.847,73.04,3.173c-5.028,7.02-8.763,15.029-11.371,23.416c-2.569,8.322-4.188,17.353-4.443,25.778
				l-4.495-4.498h158.208l-4.495,4.498c-0.259-8.425-1.874-17.459-4.447-25.788c-2.607-8.383-6.34-16.396-11.374-23.416
				c-5.027-7.02-11.377-12.999-18.748-17.376C165.438-18.073,158.268-20.626,150.83-22.197z M149.081-31.742
				c9.52,1.599,18.956,4.741,27.394,9.81c8.456,5.019,15.772,11.92,21.442,19.856c5.691,7.943,9.807,16.83,12.657,25.989
				c2.812,9.251,4.546,18.48,4.853,28.443c0.073,2.404-1.816,4.422-4.227,4.495l-0.115,0.003h-0.153H52.724H52.59
				c-2.406,0-4.36-1.957-4.36-4.364c0-0.041,0-0.096,0-0.134c0.312-9.963,2.04-19.188,4.849-28.437
				c2.852-9.159,6.963-18.046,12.651-25.985c5.667-7.936,12.98-14.838,21.434-19.859c8.434-5.069,17.864-8.214,27.384-9.813
				l0.013-0.003l0.239-0.035c2.021-0.3,3.917,0.862,4.629,2.685l15.138,38.825l0.003,0.003l-5.484,0.003l15.125-38.828
				c0.754-1.931,2.749-3.01,4.716-2.678L149.081-31.742z"/>
			<path fill="#A87C4F" d="M176.822-83.556l-0.118,1.982c-0.067,0.741-0.141,1.533-0.269,2.283c-0.252,1.468-0.584,2.886-1.06,4.281
				c-0.913,2.781-2.091,5.443-3.495,7.933c-2.774,4.986-5.74,9.65-9.229,14.231c-1.774,2.257-3.779,4.38-6.018,6.298
				c-2.285,1.836-4.849,3.346-7.575,4.463c-5.487,2.292-11.225,3.483-17.347,3.509c-11.579,0.118-23.56-4.699-31.889-13.082
				c-8.463-8.3-13.437-20.105-13.43-32.003c-0.105-11.875,4.687-23.859,13.248-32.182c8.428-8.425,20.307-13.271,32.175-13.156
				c11.876-0.006,23.658,4.955,31.942,13.395c8.367,8.36,13.182,20.146,13.063,31.936V-83.556z M167.832-83.668
				c0-9.456-3.913-18.761-10.637-25.369c-6.675-6.659-15.986-10.464-25.375-10.378c-9.396,0.003-18.637,3.885-25.2,10.554
				c-6.576,6.64-10.503,15.802-10.487,25.197c-0.079,9.375,3.723,18.666,10.369,25.325c6.649,6.704,15.77,10.608,25.442,10.614
				c4.488,0.016,9.356-0.888,13.657-2.675c2.161-0.929,4.345-1.851,6.368-3.109c2.11-1.111,4.147-2.433,6.04-3.975
				c3.84-3.036,6.682-7.301,8.198-11.942c0.702-2.347,1.155-4.737,1.366-7.125l0.252-3.553l0.048-1.683l-0.038-1.989v0.108H167.832z
				"/>
		</g>
	</g>
</g>
</svg>
